{"title":"Project.X.2012.EXTENDED.SWESUB.480p.BluRay.XviD.AC3-5.1-Happyvik","uid":7971932,"size":1467803648,"categoryP":"video","categoryS":"movies","magnet":"?xt=urn:btih:69a8afb31287b60504e728d0154a90ffcc1db0a4&amp;dn=Project.X.2012.EXTENDED.SWESUB.480p.BluRay.XviD.AC3-5.1-Happyvik&amp;tr=udp%3A%2F%2Ftracker.openbittorrent.com%3A80&amp;tr=udp%3A%2F%2Fopen.demonii.com%3A1337&amp;tr=udp%3A%2F%2Ftracker.coppersurfer.tk%3A6969&amp;tr=udp%3A%2F%2Fexodus.desync.com%3A6969","seeders":1,"leechers":0,"uploader":"Happyviking","files":-1,"time":1356877235,"description":" &lt;a href=&quot;http://www.imdb.com/title/tt1636826/&quot; rel=&quot;nofollow&quot; target=&quot;_NEW&quot;&gt;http://www.imdb.com/title/tt1636826/&lt;/a&gt;\n\n\nProjekt X &quot;Hemmafesten&quot;\n\n\n\nGeneral\nComplete name:Project.X.2012.EXTENDED.SWESUB.480p.BluRay.XviD.AC3-5.1-Happyviking\nFormat                           : AVI\nFormat/Info                      : Audio Video Interleave\nFile size                        : 1.37 GiB\nDuration                         : 1h 32mn\nOverall bit rate                 : 2 105 Kbps\nWriting application              : VirtualDubMod 1.5.10.2 (build 2542/release)\nWriting library                  : VirtualDubMod build 2542/release\n\nVideo\nID                               : 0\nFormat                           : MPEG-4 Visual\nFormat profile                   : Advanced Simple@L5\nFormat settings, BVOP            : 1\nFormat settings, QPel            : No\nFormat settings, GMC             : No warppoints\nFormat settings, Matrix          : Default (H.263)\nMuxing mode                      : Packed bitstream\nCodec ID                         : XVID\nCodec ID/Hint                    : XviD\nDuration                         : 1h 32mn\nBit rate                         : 1 457 Kbps\nWidth                            : 720 pixels\nHeight                           : 400 pixels\nDisplay aspect ratio             : 16:9\nFrame rate                       : 23.976 fps\nColor space                      : YUV\nChroma subsampling               : 4:2:0\nBit depth                        : 8 bits\nScan type                        : Progressive\nCompression mode                 : Lossy\nBits/(Pixel*Frame)               : 0.211\nStream size                      : 969 MiB (69%)\nWriting library                  : XviD 1.2.1 (UTC 2008-12-04)\n\nAudio\nID                               : 1\nFormat                           : AC-3\nFormat/Info                      : Audio Coding 3\nMode extension                   : CM (complete main)\nCodec ID                         : 2000\nDuration                         : 1h 32mn\nBit rate mode                    : Constant\nBit rate                         : 640 Kbps\nChannel(s)                       : 6 channels\nChannel positions                : Front: L C R, Side: L R, LFE\nSampling rate                    : 48.0 KHz\nBit depth                        : 16 bits\nCompression mode                 : Lossy\nStream size                      : 426 MiB (30%)\nAlignment                        : Split accross interleaves\nInterleave, duration             : 64 ms (1.53 video frames)\nInterleave, preload duration     : 500 ms\n\n &lt;a href=&quot;\nhttp://www.shotpix.com/images/46952244965655958660.jpg&quot; rel=&quot;nofollow&quot; target=&quot;_NEW&quot;&gt;\nhttp://www.shotpix.com/images/46952244965655958660.jpg&lt;/a&gt; &lt;a href=&quot;\nhttp://www.shotpix.com/images/04399246459853520674.jpg&quot; rel=&quot;nofollow&quot; target=&quot;_NEW&quot;&gt;\nhttp://www.shotpix.com/images/04399246459853520674.jpg&lt;/a&gt; &lt;a href=&quot;\nhttp://www.shotpix.com/images/58533845844453867526.jpg&quot; rel=&quot;nofollow&quot; target=&quot;_NEW&quot;&gt;\nhttp://www.shotpix.com/images/58533845844453867526.jpg&lt;/a&gt; &lt;a href=&quot;\nhttp://www.shotpix.com/images/24749251994942085733.jpg&quot; rel=&quot;nofollow&quot; target=&quot;_NEW&quot;&gt;\nhttp://www.shotpix.com/images/24749251994942085733.jpg&lt;/a&gt; &lt;a href=&quot;\nhttp://www.shotpix.com/images/14427208760829927921.jpg&quot; rel=&quot;nofollow&quot; target=&quot;_NEW&quot;&gt;\nhttp://www.shotpix.com/images/14427208760829927921.jpg&lt;/a&gt; &lt;a href=&quot;\nhttp://www.shotpix.com/images/46852000898119424027.jpg&quot; rel=&quot;nofollow&quot; target=&quot;_NEW&quot;&gt;\nhttp://www.shotpix.com/images/46852000898119424027.jpg&lt;/a&gt; &lt;a href=&quot;\nhttp://www.shotpix.com/images/70322938999910329282.jpg&quot; rel=&quot;nofollow&quot; target=&quot;_NEW&quot;&gt;\nhttp://www.shotpix.com/images/70322938999910329282.jpg&lt;/a&gt;\n\n\n","torrent":{"xt":"urn:btih:69a8afb31287b60504e728d0154a90ffcc1db0a4","amp;dn":"Project.X.2012.EXTENDED.SWESUB.480p.BluRay.XviD.AC3-5.1-Happyvik","amp;tr":["udp%3A%2F%2Ftracker.openbittorrent.com%3A80","udp%3A%2F%2Fopen.demonii.com%3A1337","udp%3A%2F%2Ftracker.coppersurfer.tk%3A6969","udp%3A%2F%2Fexodus.desync.com%3A6969"],"infoHash":"69a8afb31287b60504e728d0154a90ffcc1db0a4","infoHashBuffer":{"type":"Buffer","data":[105,168,175,179,18,135,182,5,4,231,40,208,21,74,144,255,204,29,176,164]},"announce":[],"urlList":[]}}